<?xml version="1.0" encoding="iso-8859-1"?>
<!-- Generator: Adobe Illustrator 19.0.0, SVG Export Plug-In . SVG Version: 6.00 Build 0)  -->
<svg xmlns="http://www.w3.org/2000/svg" xmlns:xlink="http://www.w3.org/1999/xlink" version="1.1" id="Layer_1" x="0px" y="0px" viewBox="0 0 512 512" style="enable-background:new 0 0 512 512;" xml:space="preserve" width="512" height="512">
<g>
	<g>
		<polygon style="fill:#4695FD;" points="417.933,7.5 94.067,7.5 94.067,151.669 94.067,151.669 94.066,151.669 256,168.523     417.933,151.669 417.932,151.669 417.933,151.669   "/>
		<polygon style="fill:#0D84FD;" points="94.067,121.669 94.067,151.669 94.066,151.669 256,168.523 417.933,151.669     417.933,121.669   "/>
		<rect x="145.585" y="7.5" style="fill:#76E7E7;" width="47.451" height="144.169"/>
		<rect x="318.964" y="7.5" style="fill:#76E7E7;" width="47.451" height="144.169"/>
		<rect x="237.723" y="180.01" style="fill:#FDB058;" width="36.553" height="89.538"/>
		<circle style="fill:#FB8554;" cx="256" cy="373.485" r="131.015"/>
		<circle style="fill:#F9A357;" cx="256" cy="373.485" r="96.643"/>
		<g>
			<path style="fill:#FB8554;" d="M271.435,398.061v-3.277c0-11.555-7.071-13.797-16.556-13.797c-5.864,0-7.761-5.174-7.761-10.348     c0-5.174,1.897-10.348,7.761-10.348c6.553,0,13.452-0.863,13.452-14.832c0-10.003-5.691-12.417-12.762-12.417     c-8.451,0-12.762,2.069-12.762,8.796c0,5.864-2.587,9.83-12.59,9.83c-12.417,0-13.969-2.587-13.969-10.865     c0-13.453,9.658-30.871,39.321-30.871c21.903,0,38.46,7.933,38.46,31.216c0,12.59-4.657,24.317-13.28,28.284     c10.175,3.794,17.591,11.382,17.591,25.352v3.277c0,28.284-19.488,38.976-43.633,38.976c-29.664,0-41.046-18.109-41.046-32.595     c0-7.761,3.277-9.831,12.762-9.831c11.038,0,13.797,2.415,13.797,8.968c0,8.106,7.588,10.003,15.349,10.003     C267.296,413.583,271.435,409.271,271.435,398.061z"/>
		</g>
		<rect x="318.964" y="121.669" style="fill:#34BCCF;" width="47.451" height="30"/>
		<rect x="145.585" y="121.669" style="fill:#34BCCF;" width="47.451" height="30"/>
		<path style="fill:#F9A357;" d="M417.933,151.67H94.066c-14.952,0-27.072,12.121-27.072,27.072v0    c0,14.952,12.121,27.072,27.072,27.072h323.867c14.952,0,27.072-12.121,27.072-27.072v0    C445.005,163.79,432.884,151.67,417.933,151.67z"/>
	</g>
	<g>
		<path d="M256,269.341c-57.425,0-104.144,46.719-104.144,104.144S198.575,477.628,256,477.628s104.144-46.719,104.144-104.144    S313.425,269.341,256,269.341z M256,462.628c-49.154,0-89.144-39.99-89.144-89.144s39.99-89.144,89.144-89.144    s89.144,39.99,89.144,89.144S305.154,462.628,256,462.628z"/>
		<path d="M293.724,368.056c4.963-6.674,7.804-16.12,7.804-26.907c0-14.459-5.971-38.716-45.96-38.716    c-32.344,0-46.821,19.271-46.821,38.371c0,11.338,3.592,18.365,21.47,18.365c17.48,0,20.09-10.858,20.09-17.33    c0-0.323,0.019-0.561,0.041-0.728c0.562-0.205,2.011-0.568,5.221-0.568c4.624,0,5.263,0.598,5.263,4.917    c0,4.489-0.882,6.355-1.349,6.715c-0.8,0.617-3.663,0.617-4.604,0.617c-9.128,0-15.261,7.172-15.261,17.848    s6.133,17.848,15.261,17.848c9.056,0,9.056,1.974,9.056,6.297v3.276c0,4.814-0.92,6.247-1.316,6.639    c-0.419,0.416-1.946,1.383-7.051,1.383c-4.327,0-6.325-0.701-7.13-1.119c-0.595-0.308-0.718-0.373-0.718-1.384    c0-16.468-14.924-16.468-21.297-16.468c-5.542,0-20.263,0-20.263,17.331c0,19.311,15.192,40.095,48.546,40.095    c32.018,0,51.133-17.374,51.133-46.477v-3.276C305.839,383.313,301.691,374.246,293.724,368.056z M290.839,398.061    c0,20.887-12.157,31.477-36.133,31.477c-26.481,0-33.546-15.774-33.546-25.095c0-0.947,0.067-1.545,0.13-1.897    c0.631-0.175,2.083-0.434,5.132-0.434c3.674,0,5.459,0.311,6.261,0.53c0.021,0.231,0.036,0.539,0.036,0.938    c0,5.263,2.227,17.503,22.849,17.503c15.723,0,23.367-7.53,23.367-23.022v-3.276c0-14.089-8.044-21.254-23.912-21.296    c-0.177-0.467-0.405-1.398-0.405-2.848s0.228-2.381,0.405-2.848c5.324-0.002,20.808-0.203,20.808-22.332    c0-12.658-7.385-19.917-20.263-19.917c-16.747,0-20.262,8.862-20.262,16.296c0,0.943-0.108,1.421-0.167,1.609    c-0.321,0.177-1.582,0.721-4.923,0.721c-3.695,0-5.499-0.264-6.338-0.465c-0.067-0.522-0.131-1.411-0.131-2.9    c0-3.903,1.534-23.371,31.821-23.371c14.415,0,30.96,2.695,30.96,23.716c0,10.227-3.666,19.056-8.915,21.47    c-2.752,1.266-4.473,4.064-4.36,7.092c0.112,3.028,2.035,5.69,4.874,6.749c8.792,3.278,12.712,8.93,12.712,18.325V398.061z"/>
		<path d="M94.067,0c-4.142,0-7.5,3.358-7.5,7.5v137.499c-15.468,3.436-27.072,17.256-27.072,33.743    c0,19.063,15.509,34.572,34.572,34.572h136.157v24.071c-64.101,12.114-112.738,68.53-112.738,136.1    C117.485,449.862,179.623,512,256,512c35.726,0,69.645-13.564,95.509-38.194c3-2.856,3.115-7.604,0.259-10.603    c-2.856-3-7.604-3.116-10.604-0.259C318.103,484.905,287.857,497,256,497c-68.106,0-123.515-55.409-123.515-123.515    c0-62.362,46.459-114.069,106.582-122.349c11.126-1.532,22.646-1.535,33.848-0.003c60.132,8.272,106.601,59.983,106.601,122.352    c0,24.141-6.972,47.531-20.161,67.64c-2.271,3.464-1.305,8.113,2.158,10.385c3.463,2.271,8.113,1.305,10.385-2.158    c14.796-22.56,22.618-48.794,22.618-75.867c0-67.57-48.637-123.986-112.739-136.1v-24.071h136.157    c19.063,0,34.572-15.509,34.572-34.572c0-16.487-11.604-30.307-27.072-33.743V7.5c0-4.142-3.358-7.5-7.5-7.5H94.067z     M266.776,235.386c-1.649-0.127-8.841-0.417-10.776-0.417c-3.593,0-7.194,0.14-10.777,0.417v-22.072h21.553V235.386z     M200.536,144.169V15h110.928v129.169H200.536z M410.433,144.169h-36.518V15h36.518V144.169z M358.915,15v129.169h-32.451V15    H358.915z M101.567,15h36.518v28.51c0,4.142,3.358,7.5,7.5,7.5s7.5-3.358,7.5-7.5V15h32.451v129.169h-32.451V73.51    c0-4.142-3.358-7.5-7.5-7.5s-7.5,3.358-7.5,7.5v70.659h-36.518V15z M94.066,198.314c-10.792,0-19.572-8.78-19.572-19.572    c0-10.792,8.78-19.572,19.572-19.572h323.867c10.792,0,19.572,8.78,19.572,19.572c0,10.792-8.78,19.572-19.572,19.572H94.066z"/>
	</g>
</g>















</svg>
