<?xml version="1.0" encoding="iso-8859-1"?>
<!-- Generator: Adobe Illustrator 19.0.0, SVG Export Plug-In . SVG Version: 6.00 Build 0)  -->
<svg xmlns="http://www.w3.org/2000/svg" xmlns:xlink="http://www.w3.org/1999/xlink" version="1.1" id="Layer_1" x="0px" y="0px" viewBox="0 0 512 512" style="enable-background:new 0 0 512 512;" xml:space="preserve" width="512" height="512">
<g>
	<g>
		<polygon style="fill:#EAEAEC;" points="142.556,7.5 218.033,122.476 247.557,237.451 201.604,237.451 126.127,122.476 96.603,7.5       "/>
		<path style="fill:#D8D8DA;" d="M201.604,237.452h45.953l-18.555-72.26c-21.936,3.21-42.642,10.26-61.401,20.461L201.604,237.452z"/>
		<polygon style="fill:#FD5C6F;" points="142.556,7.5 247.557,237.451 293.51,237.451 188.509,7.5   "/>
		<polygon style="fill:#FD5C6F;" points="50.65,7.5 155.652,237.451 201.604,237.451 96.603,7.5   "/>
		<polygon style="fill:#EAEAEC;" points="369.444,7.5 293.966,122.476 264.442,237.451 310.395,237.451 385.872,122.476     415.396,7.5   "/>
		<path style="fill:#D8D8DA;" d="M282.997,165.192l-18.555,72.26h45.953l34.004-51.798    C325.64,175.452,304.934,168.402,282.997,165.192z"/>
		<path style="fill:#E92740;" d="M215.682,167.645l31.875,69.807h45.953l-33.874-74.183c-1.21-0.023-2.421-0.046-3.637-0.046    C242.157,163.223,228.668,164.758,215.682,167.645z"/>
		<path style="fill:#E92740;" d="M155.652,237.452h45.953l-25.61-56.085c-12.777,6.128-24.744,13.68-35.705,22.442L155.652,237.452z    "/>
		<polygon style="fill:#4695FD;" points="369.444,7.5 264.442,237.451 218.489,237.451 323.491,7.5   "/>
		<polygon style="fill:#4695FD;" points="461.349,7.5 356.348,237.451 310.395,237.451 415.396,7.5   "/>
		<path style="fill:#0D84FD;" d="M296.318,167.645c-12.986-2.887-26.475-4.422-40.318-4.422c-1.216,0-2.426,0.022-3.636,0.046    l-33.874,74.183h45.953L296.318,167.645z"/>
		<path style="fill:#0D84FD;" d="M336.005,181.367l-25.61,56.085h45.953l15.362-33.643    C360.749,195.047,348.782,187.495,336.005,181.367z"/>
		<circle style="fill:#FDB058;" cx="256" cy="348.861" r="155.639"/>
		<circle style="fill:#FDE475;" cx="256" cy="348.861" r="118.393"/>
		<g>
			<path style="fill:#FDB058;" d="M246.954,310.225l-5.881,3.651c-1.825,1.216-3.651,1.622-5.07,1.622     c-5.882,0-9.938-6.288-9.938-12.575c0-4.258,1.826-8.315,5.882-10.748l26.771-16.225c1.622-1.014,3.65-1.42,5.881-1.42     c6.49,0,13.994,3.853,13.994,9.938v128.989c0,6.49-7.909,9.735-15.819,9.735c-7.91,0-15.82-3.245-15.82-9.735V310.225z"/>
		</g>
	</g>
	<g>
		<path d="M255.992,222.968c-69.418,0-125.894,56.476-125.894,125.894c0,69.417,56.476,125.893,125.894,125.893    s125.894-56.476,125.894-125.893C381.885,279.443,325.41,222.968,255.992,222.968z M255.992,459.754    c-61.147,0-110.894-49.747-110.894-110.893c0-61.147,49.747-110.894,110.894-110.894s110.894,49.746,110.894,110.894    C366.885,410.008,317.139,459.754,255.992,459.754z"/>
		<path d="M264.59,267.03c-3.797,0-7.095,0.85-9.803,2.527l-26.707,16.186c-6.053,3.631-9.524,9.893-9.524,17.181    c0,11.069,7.823,20.075,17.438,20.075c0.96,0,2.138-0.092,3.451-0.385v90.844c0,10.147,9.589,17.235,23.32,17.235    c13.73,0,23.319-7.087,23.319-17.235V284.468C286.085,273.697,274.928,267.03,264.59,267.03z M271.084,413.413    c-0.528,0.719-3.474,2.279-8.319,2.279c-4.846,0-7.793-1.561-8.32-2.279c0,0,0-103.055,0-103.187    c0-5.772-6.551-9.418-11.456-6.372l-5.881,3.651c-0.069,0.043-0.137,0.087-0.204,0.132c-0.535,0.356-0.895,0.363-0.91,0.363    c-0.727,0-2.438-2.143-2.438-5.075c0-2.974,1.686-3.984,2.269-4.334l26.771-16.225c0.03-0.018,0.059-0.036,0.089-0.055    c0.125-0.078,0.709-0.279,1.905-0.279c3.35,0,6.101,1.703,6.495,2.498L271.084,413.413z"/>
		<path d="M467.65,3.445C466.27,1.298,463.893,0,461.341,0H323.483c-2.937,0-5.603,1.714-6.822,4.385l-60.669,132.864L195.323,4.385    C194.103,1.714,191.437,0,188.5,0c0,0-137.693,0-137.858,0c-5.361,0-9.05,5.737-6.822,10.615l100.289,219.632    c-31.539,29.765-51.256,71.928-51.256,118.614C92.853,438.816,166.037,512,255.992,512c38.195,0,75.347-13.481,104.61-37.961    c3.177-2.658,3.598-7.388,0.94-10.565c-2.658-3.177-7.389-3.598-10.564-0.94C324.408,484.76,290.675,497,255.992,497    c-81.684,0-148.139-66.455-148.139-148.139c0-70.056,48.883-128.905,114.33-144.242c22.149-5.19,45.47-5.189,67.618,0    c65.447,15.337,114.33,74.187,114.33,144.242c0,34.054-11.846,67.31-33.354,93.642c-2.62,3.208-2.144,7.933,1.064,10.553    c3.208,2.622,7.933,2.145,10.553-1.063c23.69-29.002,36.737-65.628,36.737-103.131c0-46.686-19.718-88.849-51.256-118.614    L468.163,10.615C469.224,8.294,469.03,5.592,467.65,3.445z M319.84,198.693c-8.286-3.526-16.849-6.356-25.6-8.46L374.256,15    h29.463L319.84,198.693z M328.303,15h29.463l-78.697,172.344c-9.364-1.319-18.875-1.84-28.326-1.528    c-0.148,0.005-0.294,0.002-0.442,0.008L328.303,15z M247.746,155.305l-14.617,32.011c-0.072,0.01-0.144,0.021-0.215,0.03    L154.217,15h29.463L247.746,155.305z M91.775,15c0,0,21.975,47.998,22.269,48.4c2.056,2.818,5.875,3.901,9.171,2.396    c3.768-1.721,5.428-6.17,3.707-9.938L108.265,15l29.463,0.001l80.015,175.232c-8.751,2.104-17.314,4.934-25.6,8.46    c0,0-52.824-115.683-52.877-115.799c-1.684-3.689-6.251-5.39-9.938-3.708c-3.768,1.721-5.428,6.17-3.707,9.938l53.003,116.077    c-7.95,4.292-15.542,9.248-22.698,14.815L62.311,15H91.775z M356.056,220.017c-7.155-5.567-14.748-10.522-22.698-14.815    L420.208,15h29.463L356.056,220.017z"/>
	</g>
</g>















</svg>
